<mxfile host="app.diagrams.net" modified="2023-12-12T17:27:50.831Z" agent="Mozilla/5.0 (Windows NT 10.0; Win64; x64; rv:120.0) Gecko/20100101 Firefox/120.0" etag="OsIKYdg34r_rnuNyP4nO" version="22.1.7" type="github" pages="2">
  <diagram id="k-BuP4soah1h3poQQQ5J" name="SteamDeck Verification Checklist">
    <mxGraphModel dx="1434" dy="822" grid="1" gridSize="10" guides="1" tooltips="1" connect="1" arrows="1" fold="1" page="1" pageScale="1" pageWidth="850" pageHeight="1100" math="0" shadow="0">
      <root>
        <mxCell id="0" />
        <mxCell id="1" parent="0" />
        <mxCell id="DuCYuQeuHjRbq4vLOvyN-1" value="View the full &lt;a href=&quot;https://partner.steamgames.com/doc/steamdeck/compat&quot;&gt;Steam Deck Compatibility Review Process&lt;/a&gt; from Valve" style="rounded=0;whiteSpace=wrap;html=1;" vertex="1" parent="1">
          <mxGeometry x="130" y="250" width="590" height="60" as="geometry" />
        </mxCell>
        <mxCell id="pAkYzeAB4W399V6Kurm9-37" value="&lt;div style=&quot;font-size: 20px;&quot;&gt;SteamDeck Verification Checklist&lt;/div&gt;" style="swimlane;fontStyle=1;childLayout=stackLayout;horizontal=1;startSize=30;horizontalStack=0;resizeParent=1;resizeParentMax=0;resizeLast=0;collapsible=1;marginBottom=0;whiteSpace=wrap;html=1;fontSize=20;" parent="1" vertex="1">
          <mxGeometry x="130" y="80" width="590" height="120" as="geometry" />
        </mxCell>
        <mxCell id="pAkYzeAB4W399V6Kurm9-10" value="&lt;div style=&quot;font-size: 17px;&quot;&gt;Input&lt;/div&gt;" style="swimlane;fontStyle=1;childLayout=stackLayout;horizontal=1;startSize=30;horizontalStack=0;resizeParent=1;resizeParentMax=0;resizeLast=0;collapsible=1;marginBottom=0;whiteSpace=wrap;html=1;rounded=1;fontSize=17;fillColor=#f5f5f5;fontColor=#333333;strokeColor=#666666;" parent="pAkYzeAB4W399V6Kurm9-37" vertex="1" collapsed="1">
          <mxGeometry y="30" width="590" height="30" as="geometry">
            <mxRectangle y="30" width="590" height="120" as="alternateBounds" />
          </mxGeometry>
        </mxCell>
        <mxCell id="pC0vIboM5VZAy-pBozo2-1" value="Controller Support" style="rounded=0;whiteSpace=wrap;html=1;container=1;verticalAlign=top;recursiveResize=0;fillColor=#f8cecc;strokeColor=#b85450;" parent="pAkYzeAB4W399V6Kurm9-10" vertex="1" collapsed="1">
          <mxGeometry y="30" width="590" height="30" as="geometry">
            <mxRectangle y="30" width="590" height="110" as="alternateBounds" />
          </mxGeometry>
        </mxCell>
        <mxCell id="pC0vIboM5VZAy-pBozo2-13" value="&amp;nbsp;Your game must support Steam Deck&#39;s physical controls. The default controller configuration must provide users with the ability to access all content. Players must not need to adjust any in-game settings in order to enable controller support or this configuration." style="rounded=0;whiteSpace=wrap;html=1;align=left;fillColor=none;strokeColor=none;" parent="pC0vIboM5VZAy-pBozo2-1" vertex="1">
          <mxGeometry x="10" y="30" width="380" height="60" as="geometry" />
        </mxCell>
        <mxCell id="pC0vIboM5VZAy-pBozo2-2" value="Controller Glyphs" style="rounded=0;whiteSpace=wrap;html=1;verticalAlign=top;container=1;recursiveResize=0;fillColor=#f8cecc;strokeColor=#b85450;" parent="pAkYzeAB4W399V6Kurm9-10" vertex="1" collapsed="1">
          <mxGeometry y="60" width="590" height="30" as="geometry">
            <mxRectangle y="60" width="500" height="335" as="alternateBounds" />
          </mxGeometry>
        </mxCell>
        <mxCell id="pC0vIboM5VZAy-pBozo2-18" value="" style="edgeStyle=orthogonalEdgeStyle;rounded=0;orthogonalLoop=1;jettySize=auto;html=1;" parent="pC0vIboM5VZAy-pBozo2-2" source="pC0vIboM5VZAy-pBozo2-16" target="pC0vIboM5VZAy-pBozo2-17" edge="1">
          <mxGeometry relative="1" as="geometry" />
        </mxCell>
        <mxCell id="pC0vIboM5VZAy-pBozo2-16" value="Install GodotSteam Plugin or use GodotSteam Precompile" style="rounded=0;whiteSpace=wrap;html=1;" parent="pC0vIboM5VZAy-pBozo2-2" vertex="1">
          <mxGeometry x="70" y="165" width="155.04" height="60" as="geometry" />
        </mxCell>
        <mxCell id="pC0vIboM5VZAy-pBozo2-20" value="" style="edgeStyle=orthogonalEdgeStyle;rounded=0;orthogonalLoop=1;jettySize=auto;html=1;" parent="pC0vIboM5VZAy-pBozo2-2" source="pC0vIboM5VZAy-pBozo2-17" target="pC0vIboM5VZAy-pBozo2-19" edge="1">
          <mxGeometry relative="1" as="geometry" />
        </mxCell>
        <mxCell id="pC0vIboM5VZAy-pBozo2-17" value="Set up autoload with Steam script from plugin" style="whiteSpace=wrap;html=1;rounded=0;" parent="pC0vIboM5VZAy-pBozo2-2" vertex="1">
          <mxGeometry x="274.96" y="165" width="155.04" height="60" as="geometry" />
        </mxCell>
        <mxCell id="pC0vIboM5VZAy-pBozo2-22" value="" style="edgeStyle=orthogonalEdgeStyle;rounded=0;orthogonalLoop=1;jettySize=auto;html=1;" parent="pC0vIboM5VZAy-pBozo2-2" source="pC0vIboM5VZAy-pBozo2-19" target="pC0vIboM5VZAy-pBozo2-21" edge="1">
          <mxGeometry relative="1" as="geometry" />
        </mxCell>
        <mxCell id="pC0vIboM5VZAy-pBozo2-19" value="Add Steam App ID to script" style="whiteSpace=wrap;html=1;rounded=0;" parent="pC0vIboM5VZAy-pBozo2-2" vertex="1">
          <mxGeometry x="274.96" y="255" width="155.04" height="60" as="geometry" />
        </mxCell>
        <mxCell id="pC0vIboM5VZAy-pBozo2-21" value="Refer to &lt;a href=&quot;https://godotsteam.com/classes/input/&quot;&gt;GodotSteam Input Documentation&lt;/a&gt; for calls" style="whiteSpace=wrap;html=1;rounded=0;" parent="pC0vIboM5VZAy-pBozo2-2" vertex="1">
          <mxGeometry x="70" y="255" width="155.04" height="60" as="geometry" />
        </mxCell>
        <mxCell id="pC0vIboM5VZAy-pBozo2-15" value="&lt;p style=&quot;font-size: 13px;&quot;&gt;When using Steam Deck&#39;s physical controls, on-screen glyphs must either match Deck button names, or match Xbox 360/One button names. Mouse and keyboard glyphs should not be shown if they are not the active input. Interacting with any physical Deck controls using the default configuration must not show non-controller glyphs. (&lt;i style=&quot;font-family: &amp;quot;Motiva Sans&amp;quot;, sans-serif;&quot;&gt;Recommendations: We strongly recommend using the&amp;nbsp;&lt;a style=&quot;border: 0px; margin: 0px; padding: 0px;&quot; rel=&quot;noreferrer&quot; target=&quot;_blank&quot; href=&quot;https://partner.steamgames.com/doc/api/isteaminput&quot;&gt;SteamInput API&lt;/a&gt;, which will automatically show the correct glyphs regardless of which input device the user is using.&lt;/i&gt;&lt;span style=&quot;font-family: &amp;quot;Motiva Sans&amp;quot;, sans-serif;&quot;&gt;)&lt;/span&gt;&lt;/p&gt;" style="rounded=0;whiteSpace=wrap;html=1;align=left;recursiveResize=0;strokeColor=none;fillColor=none;" parent="pC0vIboM5VZAy-pBozo2-2" vertex="1">
          <mxGeometry x="40" y="30" width="410" height="120" as="geometry" />
        </mxCell>
        <mxCell id="pC0vIboM5VZAy-pBozo2-3" value="Text Input" style="rounded=0;whiteSpace=wrap;html=1;verticalAlign=top;container=1;fillColor=#f8cecc;strokeColor=#b85450;recursiveResize=0;" parent="pAkYzeAB4W399V6Kurm9-10" vertex="1" collapsed="1">
          <mxGeometry y="90" width="590" height="30" as="geometry">
            <mxRectangle y="395" width="500" height="335" as="alternateBounds" />
          </mxGeometry>
        </mxCell>
        <mxCell id="pAkYzeAB4W399V6Kurm9-1" value="See &lt;a href=&quot;https://partner.steamgames.com/doc/api/ISteamUtils#ShowFloatingGamepadTextInput&quot;&gt;Steamworks API Reference&lt;/a&gt; for showing on-screen keyboard" style="rounded=0;whiteSpace=wrap;html=1;" parent="pC0vIboM5VZAy-pBozo2-3" vertex="1">
          <mxGeometry x="139.95999999999998" y="270" width="210" height="53.57" as="geometry" />
        </mxCell>
        <mxCell id="pAkYzeAB4W399V6Kurm9-17" value=" If your game requires text input (eg., for naming a character or a save file), you must either use a &lt;a rel=&quot;noreferrer&quot; target=&quot;_blank&quot; href=&quot;https://partner.steamgames.com/doc/steamdeck/recommendations#Input&quot;&gt;Steamworks API for text entry&lt;/a&gt; to open the on-screen keyboard for players using a controller, or have your own built-in entry that allows users to enter text in their &lt;br&gt;language using only a controller." style="text;html=1;strokeColor=none;fillColor=none;align=center;verticalAlign=middle;whiteSpace=wrap;rounded=0;" parent="pC0vIboM5VZAy-pBozo2-3" vertex="1">
          <mxGeometry x="9.91" y="39" width="470.09" height="81.43" as="geometry" />
        </mxCell>
        <mxCell id="pAkYzeAB4W399V6Kurm9-19" value="Call either &#39;showFloatingGamepadTextInput()` or `showGamepadTextInput()` as your project dictates when it requires text input from the user, as when choosing a screen name, or input inventory quantities.&lt;br&gt;&lt;a href=&quot;https://godotsteam.com/classes/utils/#showfloatinggamepadtextinput&quot;&gt;GodotSteam Docs for GamepadTextInput functions&lt;/a&gt;" style="rounded=0;whiteSpace=wrap;html=1;" parent="pC0vIboM5VZAy-pBozo2-3" vertex="1">
          <mxGeometry x="23.76" y="135.71857142857144" width="452.49" height="108.57142857142858" as="geometry" />
        </mxCell>
        <mxCell id="pAkYzeAB4W399V6Kurm9-20" value="&lt;div style=&quot;font-size: 17px;&quot;&gt;Display&lt;/div&gt;" style="swimlane;fontStyle=1;childLayout=stackLayout;horizontal=1;startSize=30;horizontalStack=0;resizeParent=1;resizeParentMax=0;resizeLast=0;collapsible=1;marginBottom=0;whiteSpace=wrap;html=1;rounded=1;fontSize=17;fillColor=#f5f5f5;strokeColor=#666666;fontColor=#333333;" parent="pAkYzeAB4W399V6Kurm9-37" vertex="1" collapsed="1">
          <mxGeometry y="60" width="590" height="30" as="geometry">
            <mxRectangle y="60" width="590" height="120" as="alternateBounds" />
          </mxGeometry>
        </mxCell>
        <mxCell id="pC0vIboM5VZAy-pBozo2-4" value="Resolution Support" style="rounded=0;whiteSpace=wrap;html=1;verticalAlign=top;container=1;fillColor=#f8cecc;strokeColor=#b85450;recursiveResize=0;" parent="pAkYzeAB4W399V6Kurm9-20" vertex="1" collapsed="1">
          <mxGeometry y="30" width="590" height="30" as="geometry">
            <mxRectangle y="30" width="500" height="210" as="alternateBounds" />
          </mxGeometry>
        </mxCell>
        <mxCell id="pAkYzeAB4W399V6Kurm9-24" value="&lt;div align=&quot;left&quot;&gt;The game must run at a resolution supported by Steam Deck.&lt;/div&gt;&lt;div&gt;&lt;br&gt;&lt;/div&gt;&lt;div align=&quot;left&quot;&gt;(&lt;i&gt;Recommendations: Whenever possible, we recommend you support the Deck&#39;s native resolutions of 1280x800 (preferred) or 1280x720.&lt;/i&gt;)&lt;/div&gt;" style="text;html=1;strokeColor=none;fillColor=none;align=center;verticalAlign=middle;whiteSpace=wrap;rounded=0;" parent="pC0vIboM5VZAy-pBozo2-4" vertex="1">
          <mxGeometry x="10" y="40" width="540" height="70" as="geometry" />
        </mxCell>
        <mxCell id="pAkYzeAB4W399V6Kurm9-25" value="Set up in the Project Settings menu of your Godot project" style="rounded=0;whiteSpace=wrap;html=1;" parent="pC0vIboM5VZAy-pBozo2-4" vertex="1">
          <mxGeometry x="160" y="130" width="230" height="60" as="geometry" />
        </mxCell>
        <mxCell id="pC0vIboM5VZAy-pBozo2-5" value="Default Configuration" style="rounded=0;whiteSpace=wrap;html=1;verticalAlign=top;container=1;fillColor=#f8cecc;strokeColor=#b85450;" parent="pAkYzeAB4W399V6Kurm9-20" vertex="1" collapsed="1">
          <mxGeometry y="60" width="590" height="30" as="geometry">
            <mxRectangle y="60" width="560" height="80" as="alternateBounds" />
          </mxGeometry>
        </mxCell>
        <mxCell id="pAkYzeAB4W399V6Kurm9-26" value="The game must ship with a default configuration on Deck that results in a playable framerate." style="text;html=1;strokeColor=none;fillColor=none;align=left;verticalAlign=middle;whiteSpace=wrap;rounded=0;" parent="pC0vIboM5VZAy-pBozo2-5" vertex="1">
          <mxGeometry x="22.5" y="30" width="515" height="30" as="geometry" />
        </mxCell>
        <mxCell id="pC0vIboM5VZAy-pBozo2-6" value="Text Legibility" style="rounded=0;whiteSpace=wrap;html=1;verticalAlign=top;container=1;fillColor=#f8cecc;strokeColor=#b85450;recursiveResize=0;" parent="pAkYzeAB4W399V6Kurm9-20" vertex="1" collapsed="1">
          <mxGeometry y="90" width="590" height="30" as="geometry">
            <mxRectangle y="90" width="560" height="300" as="alternateBounds" />
          </mxGeometry>
        </mxCell>
        <mxCell id="pAkYzeAB4W399V6Kurm9-27" value="&lt;div align=&quot;left&quot;&gt;Interface text must be easily readable at a distance of 12 inches/30 cm &lt;br&gt;from the screen. In other words, the smallest on-screen font character &lt;br&gt;&lt;/div&gt;&lt;div align=&quot;left&quot;&gt;should never fall below 9 pixels in height at 1280x800.&lt;/div&gt;&lt;div align=&quot;left&quot;&gt;&lt;br&gt;&lt;/div&gt;&lt;div align=&quot;left&quot;&gt;(&lt;i&gt;Recommendations: &lt;/i&gt;&lt;i&gt;We expect Steam Deck will be used in a wide variety of lighting and &lt;/i&gt;&lt;br&gt;&lt;/div&gt;&lt;div align=&quot;left&quot;&gt;&lt;i&gt;physical configurations, such as being connected to a TV, monitor or keyboard. We recommend supporting user-configurable text size and, when &lt;/i&gt;&lt;i&gt;possible, contrast. While 9px is the absolute minimum text size for &lt;/i&gt;&lt;i&gt;approval, we recommend aiming for 12px whenever possible.&lt;/i&gt;)&lt;/div&gt;" style="text;html=1;strokeColor=none;fillColor=none;align=left;verticalAlign=middle;whiteSpace=wrap;rounded=0;" parent="pC0vIboM5VZAy-pBozo2-6" vertex="1">
          <mxGeometry x="20" y="40" width="490" height="120" as="geometry" />
        </mxCell>
        <mxCell id="pAkYzeAB4W399V6Kurm9-30" value="" style="edgeStyle=orthogonalEdgeStyle;rounded=0;orthogonalLoop=1;jettySize=auto;html=1;" parent="pC0vIboM5VZAy-pBozo2-6" source="pAkYzeAB4W399V6Kurm9-28" target="pAkYzeAB4W399V6Kurm9-29" edge="1">
          <mxGeometry relative="1" as="geometry" />
        </mxCell>
        <mxCell id="pAkYzeAB4W399V6Kurm9-28" value="Set up Theme with correct font sizing" style="rounded=0;whiteSpace=wrap;html=1;" parent="pC0vIboM5VZAy-pBozo2-6" vertex="1">
          <mxGeometry x="30" y="190" width="120" height="90" as="geometry" />
        </mxCell>
        <mxCell id="pAkYzeAB4W399V6Kurm9-29" value="SteamDeck-specific theme can be chosen and applied at runtime by adding a `steamdeck` feature tag to the export template, then checking for that feature using OS.has_feature(&quot;steamdeck&quot;) call" style="whiteSpace=wrap;html=1;rounded=0;" parent="pC0vIboM5VZAy-pBozo2-6" vertex="1">
          <mxGeometry x="220" y="190" width="310" height="90" as="geometry" />
        </mxCell>
        <mxCell id="pAkYzeAB4W399V6Kurm9-31" value="Seamlessness" style="swimlane;fontStyle=1;childLayout=stackLayout;horizontal=1;startSize=30;horizontalStack=0;resizeParent=1;resizeParentMax=0;resizeLast=0;collapsible=1;marginBottom=0;whiteSpace=wrap;html=1;swimlaneFillColor=none;fillStyle=solid;glass=0;swimlaneLine=1;rounded=1;fontSize=17;fillColor=#f5f5f5;strokeColor=#666666;fontColor=#333333;" parent="pAkYzeAB4W399V6Kurm9-37" vertex="1" collapsed="1">
          <mxGeometry y="90" width="590" height="30" as="geometry">
            <mxRectangle y="90" width="590" height="90" as="alternateBounds" />
          </mxGeometry>
        </mxCell>
        <mxCell id="pC0vIboM5VZAy-pBozo2-7" value="No device compatibility warnings" style="rounded=0;whiteSpace=wrap;html=1;verticalAlign=top;container=1;fillColor=#f8cecc;strokeColor=#b85450;recursiveResize=0;" parent="pAkYzeAB4W399V6Kurm9-31" vertex="1" collapsed="1">
          <mxGeometry y="30" width="590" height="30" as="geometry">
            <mxRectangle y="30" width="500" height="115" as="alternateBounds" />
          </mxGeometry>
        </mxCell>
        <mxCell id="pAkYzeAB4W399V6Kurm9-35" value="&lt;div align=&quot;left&quot;&gt;The app must not present the user with information that the Deck software (ie., specific Linux distribution) or hardware (ie., GPU) is unsupported.&lt;/div&gt;" style="text;html=1;strokeColor=none;fillColor=none;align=left;verticalAlign=middle;whiteSpace=wrap;rounded=0;" parent="pC0vIboM5VZAy-pBozo2-7" vertex="1">
          <mxGeometry x="20" y="45" width="460" height="55" as="geometry" />
        </mxCell>
        <mxCell id="pC0vIboM5VZAy-pBozo2-8" value="Launchers*" style="rounded=0;whiteSpace=wrap;html=1;verticalAlign=top;container=1;fillColor=#f8cecc;strokeColor=#b85450;" parent="pAkYzeAB4W399V6Kurm9-31" vertex="1" collapsed="1">
          <mxGeometry y="60" width="590" height="30" as="geometry">
            <mxRectangle y="60" width="500" height="130" as="alternateBounds" />
          </mxGeometry>
        </mxCell>
        <mxCell id="pAkYzeAB4W399V6Kurm9-36" value="&lt;div align=&quot;left&quot;&gt;For games with launchers, those launchers also must meet the requirements listed here, including full navigability with a controller.&lt;/div&gt;&lt;div align=&quot;left&quot;&gt;&lt;br&gt;&lt;/div&gt;&lt;div align=&quot;left&quot;&gt; (&lt;i&gt;Recommendations: We recommend strongly against requiring the user to navigate a launcher to play your game.&lt;/i&gt;)&lt;/div&gt;" style="text;html=1;strokeColor=none;fillColor=none;align=left;verticalAlign=middle;whiteSpace=wrap;rounded=0;" parent="pC0vIboM5VZAy-pBozo2-8" vertex="1">
          <mxGeometry x="10" y="30" width="470" height="78" as="geometry" />
        </mxCell>
      </root>
    </mxGraphModel>
  </diagram>
  <diagram id="LiaL9THgssg9DFyeBbDI" name="Store Assets Checklist">
    <mxGraphModel dx="1434" dy="774" grid="1" gridSize="10" guides="1" tooltips="1" connect="1" arrows="1" fold="1" page="1" pageScale="1" pageWidth="850" pageHeight="1100" math="0" shadow="0">
      <root>
        <mxCell id="0" />
        <mxCell id="1" parent="0" />
        <mxCell id="qBdc02s06b4DXhgkFweo-1" value="&lt;a href=&quot;https://partner.steamgames.com/doc/store/assets&quot;&gt;Graphical Assets Overview&lt;/a&gt; from Valve" style="rounded=0;whiteSpace=wrap;html=1;" vertex="1" parent="1">
          <mxGeometry x="255" y="10" width="340" height="60" as="geometry" />
        </mxCell>
        <mxCell id="qBdc02s06b4DXhgkFweo-2" value="&lt;b&gt;&lt;font style=&quot;font-size: 24px;&quot;&gt;Store Assets&lt;/font&gt;&lt;/b&gt;" style="swimlane;fontStyle=0;childLayout=stackLayout;horizontal=1;startSize=30;horizontalStack=0;resizeParent=1;resizeParentMax=0;resizeLast=0;collapsible=1;marginBottom=0;whiteSpace=wrap;html=1;" vertex="1" parent="1">
          <mxGeometry x="190" y="120" width="510" height="520" as="geometry" />
        </mxCell>
        <mxCell id="qBdc02s06b4DXhgkFweo-20" value="Header Capsule - 460 x 215 px" style="swimlane;fontStyle=5;childLayout=stackLayout;horizontal=1;startSize=30;horizontalStack=0;resizeParent=1;resizeParentMax=0;resizeLast=0;collapsible=1;marginBottom=0;whiteSpace=wrap;html=1;fillColor=#fa6800;strokeColor=#C73500;fontColor=#000000;" vertex="1" collapsed="1" parent="qBdc02s06b4DXhgkFweo-2">
          <mxGeometry y="30" width="510" height="30" as="geometry">
            <mxRectangle y="30" width="510" height="120" as="alternateBounds" />
          </mxGeometry>
        </mxCell>
        <mxCell id="qBdc02s06b4DXhgkFweo-24" value="&lt;div&gt;&lt;b&gt;Usage&lt;/b&gt;&lt;/div&gt;" style="rounded=0;whiteSpace=wrap;html=1;align=center;verticalAlign=top;container=1;horizontal=0;fillColor=#dae8fc;strokeColor=#6c8ebf;" vertex="1" collapsed="1" parent="qBdc02s06b4DXhgkFweo-20">
          <mxGeometry y="30" width="510" height="30" as="geometry">
            <mxRectangle y="30" width="510" height="80" as="alternateBounds" />
          </mxGeometry>
        </mxCell>
        <mxCell id="qBdc02s06b4DXhgkFweo-25" value="This appears at the top of the store page, in the &#39;Recommended For You&#39; section, in browse views on Big Picture mode, and for Daily Deals if applicable." style="text;html=1;strokeColor=none;fillColor=none;align=left;verticalAlign=middle;whiteSpace=wrap;rounded=0;" vertex="1" parent="qBdc02s06b4DXhgkFweo-24">
          <mxGeometry x="65.81" y="10" width="424.19" height="60" as="geometry" />
        </mxCell>
        <mxCell id="qBdc02s06b4DXhgkFweo-32" value="&lt;b&gt;Design&lt;/b&gt;" style="rounded=0;whiteSpace=wrap;html=1;align=center;verticalAlign=top;container=1;horizontal=0;fillColor=#dae8fc;strokeColor=#6c8ebf;" vertex="1" collapsed="1" parent="qBdc02s06b4DXhgkFweo-20">
          <mxGeometry y="60" width="510" height="30" as="geometry">
            <mxRectangle y="110" width="510" height="80" as="alternateBounds" />
          </mxGeometry>
        </mxCell>
        <mxCell id="qBdc02s06b4DXhgkFweo-33" value="This image should focus on the branding of your product. For best results, please use the same artwork that you use for any retail box or marketing and make sure the logo and game name is clearly legible." style="text;html=1;strokeColor=none;fillColor=none;align=left;verticalAlign=middle;whiteSpace=wrap;rounded=0;" vertex="1" parent="qBdc02s06b4DXhgkFweo-32">
          <mxGeometry x="65.81" y="10" width="424.19" height="60" as="geometry" />
        </mxCell>
        <mxCell id="qBdc02s06b4DXhgkFweo-34" value="&lt;div&gt;&lt;b&gt;Size&lt;/b&gt;&lt;/div&gt;" style="rounded=0;whiteSpace=wrap;html=1;align=center;verticalAlign=top;container=1;horizontal=0;fillColor=#dae8fc;strokeColor=#6c8ebf;" vertex="1" collapsed="1" parent="qBdc02s06b4DXhgkFweo-20">
          <mxGeometry y="90" width="510" height="30" as="geometry">
            <mxRectangle y="190" width="510" height="80" as="alternateBounds" />
          </mxGeometry>
        </mxCell>
        <mxCell id="qBdc02s06b4DXhgkFweo-35" value="Please provide &#39;460px x 215px&#39; . A &#39;292px x 136px&#39; image will be automatically generated from this." style="text;html=1;strokeColor=none;fillColor=none;align=left;verticalAlign=middle;whiteSpace=wrap;rounded=0;" vertex="1" parent="qBdc02s06b4DXhgkFweo-34">
          <mxGeometry x="65.81" y="10" width="424.19" height="60" as="geometry" />
        </mxCell>
        <mxCell id="qBdc02s06b4DXhgkFweo-36" value="Small Capsule - 231 x 87 px" style="swimlane;fontStyle=5;childLayout=stackLayout;horizontal=1;startSize=30;horizontalStack=0;resizeParent=1;resizeParentMax=0;resizeLast=0;collapsible=1;marginBottom=0;whiteSpace=wrap;html=1;fillColor=#fa6800;strokeColor=#C73500;fontColor=#000000;" vertex="1" collapsed="1" parent="qBdc02s06b4DXhgkFweo-2">
          <mxGeometry y="60" width="510" height="30" as="geometry">
            <mxRectangle y="60" width="510" height="150" as="alternateBounds" />
          </mxGeometry>
        </mxCell>
        <mxCell id="qBdc02s06b4DXhgkFweo-37" value="&lt;div&gt;&lt;b&gt;Usage&lt;/b&gt;&lt;/div&gt;" style="rounded=0;whiteSpace=wrap;html=1;align=center;verticalAlign=top;container=1;horizontal=0;fillColor=#dae8fc;strokeColor=#6c8ebf;" vertex="1" collapsed="1" parent="qBdc02s06b4DXhgkFweo-36">
          <mxGeometry y="30" width="510" height="30" as="geometry">
            <mxRectangle y="30" width="510" height="80" as="alternateBounds" />
          </mxGeometry>
        </mxCell>
        <mxCell id="qBdc02s06b4DXhgkFweo-38" value="These are used for various lists throughout Steam. Search results, top-sellers, new releases, etc. " style="text;html=1;strokeColor=none;fillColor=none;align=left;verticalAlign=middle;whiteSpace=wrap;rounded=0;" vertex="1" parent="qBdc02s06b4DXhgkFweo-37">
          <mxGeometry x="65.81" y="10" width="424.19" height="60" as="geometry" />
        </mxCell>
        <mxCell id="qBdc02s06b4DXhgkFweo-39" value="&lt;b&gt;Design&lt;/b&gt;" style="rounded=0;whiteSpace=wrap;html=1;align=center;verticalAlign=top;container=1;horizontal=0;fillColor=#dae8fc;strokeColor=#6c8ebf;" vertex="1" collapsed="1" parent="qBdc02s06b4DXhgkFweo-36">
          <mxGeometry y="60" width="510" height="30" as="geometry">
            <mxRectangle y="60" width="510" height="80" as="alternateBounds" />
          </mxGeometry>
        </mxCell>
        <mxCell id="qBdc02s06b4DXhgkFweo-40" value="These are small, so for best results focus on making the logo clearly legible. " style="text;html=1;strokeColor=none;fillColor=none;align=left;verticalAlign=middle;whiteSpace=wrap;rounded=0;" vertex="1" parent="qBdc02s06b4DXhgkFweo-39">
          <mxGeometry x="65.81" y="10" width="424.19" height="60" as="geometry" />
        </mxCell>
        <mxCell id="qBdc02s06b4DXhgkFweo-41" value="&lt;div&gt;&lt;b&gt;Size&lt;/b&gt;&lt;/div&gt;" style="rounded=0;whiteSpace=wrap;html=1;align=center;verticalAlign=top;container=1;horizontal=0;fillColor=#dae8fc;strokeColor=#6c8ebf;" vertex="1" collapsed="1" parent="qBdc02s06b4DXhgkFweo-36">
          <mxGeometry y="90" width="510" height="30" as="geometry">
            <mxRectangle y="90" width="510" height="80" as="alternateBounds" />
          </mxGeometry>
        </mxCell>
        <mxCell id="qBdc02s06b4DXhgkFweo-42" value=" Please provide 231 x 87 px image. From that, two smaller sizes (120x45 and 184x69) capsules are automatically generated." style="text;html=1;strokeColor=none;fillColor=none;align=left;verticalAlign=middle;whiteSpace=wrap;rounded=0;" vertex="1" parent="qBdc02s06b4DXhgkFweo-41">
          <mxGeometry x="65.81" y="10" width="424.19" height="60" as="geometry" />
        </mxCell>
        <mxCell id="qBdc02s06b4DXhgkFweo-78" value="&lt;b&gt;Other Requirements&lt;br&gt;&lt;/b&gt;" style="rounded=0;whiteSpace=wrap;html=1;align=center;verticalAlign=top;container=1;horizontal=0;fillColor=#dae8fc;strokeColor=#6c8ebf;" vertex="1" collapsed="1" parent="qBdc02s06b4DXhgkFweo-36">
          <mxGeometry y="120" width="510" height="30" as="geometry">
            <mxRectangle y="270" width="510" height="100" as="alternateBounds" />
          </mxGeometry>
        </mxCell>
        <mxCell id="qBdc02s06b4DXhgkFweo-79" value="Small Capsule should contain readable logo, even at smallest size. In most cases, this means your logo should nearly fill the small capsule." style="text;html=1;strokeColor=none;fillColor=none;align=left;verticalAlign=middle;whiteSpace=wrap;rounded=0;" vertex="1" parent="qBdc02s06b4DXhgkFweo-78">
          <mxGeometry x="65.81" y="12.5" width="424.19" height="75" as="geometry" />
        </mxCell>
        <mxCell id="qBdc02s06b4DXhgkFweo-43" value="Main Capsule - 616 x 353 px" style="swimlane;fontStyle=5;childLayout=stackLayout;horizontal=1;startSize=30;horizontalStack=0;resizeParent=1;resizeParentMax=0;resizeLast=0;collapsible=1;marginBottom=0;whiteSpace=wrap;html=1;fillColor=#fa6800;strokeColor=#C73500;fontColor=#000000;" vertex="1" collapsed="1" parent="qBdc02s06b4DXhgkFweo-2">
          <mxGeometry y="90" width="510" height="30" as="geometry">
            <mxRectangle y="260" width="510" height="120" as="alternateBounds" />
          </mxGeometry>
        </mxCell>
        <mxCell id="qBdc02s06b4DXhgkFweo-44" value="&lt;div&gt;&lt;b&gt;Usage&lt;/b&gt;&lt;/div&gt;" style="rounded=0;whiteSpace=wrap;html=1;align=center;verticalAlign=top;container=1;horizontal=0;fillColor=#dae8fc;strokeColor=#6c8ebf;" vertex="1" collapsed="1" parent="qBdc02s06b4DXhgkFweo-43">
          <mxGeometry y="30" width="510" height="30" as="geometry">
            <mxRectangle y="30" width="510" height="80" as="alternateBounds" />
          </mxGeometry>
        </mxCell>
        <mxCell id="qBdc02s06b4DXhgkFweo-45" value="This image appears at the top of the Steam store home page in the Main Capsule carousel." style="text;html=1;strokeColor=none;fillColor=none;align=left;verticalAlign=middle;whiteSpace=wrap;rounded=0;" vertex="1" parent="qBdc02s06b4DXhgkFweo-44">
          <mxGeometry x="65.81" y="10" width="424.19" height="60" as="geometry" />
        </mxCell>
        <mxCell id="qBdc02s06b4DXhgkFweo-46" value="&lt;b&gt;Design&lt;/b&gt;" style="rounded=0;whiteSpace=wrap;html=1;align=center;verticalAlign=top;container=1;horizontal=0;fillColor=#dae8fc;strokeColor=#6c8ebf;" vertex="1" collapsed="1" parent="qBdc02s06b4DXhgkFweo-43">
          <mxGeometry y="60" width="510" height="30" as="geometry">
            <mxRectangle y="110" width="510" height="120" as="alternateBounds" />
          </mxGeometry>
        </mxCell>
        <mxCell id="qBdc02s06b4DXhgkFweo-47" value="For best results, please use the key art and logo that is being used for&lt;br/&gt; any retail boxes or marketing. Do not include quotes or other strings &lt;br/&gt;of text beyond the title of your game. The game&#39;s logotype should be &lt;br/&gt;easily legible against the background. The art used for them should &lt;br/&gt;immediately tell the customer something important about the game. It &lt;br/&gt;should be graphically-centric and give the user some sense of the &lt;br/&gt;game-play. " style="text;html=1;strokeColor=none;fillColor=none;align=left;verticalAlign=middle;whiteSpace=wrap;rounded=0;" vertex="1" parent="qBdc02s06b4DXhgkFweo-46">
          <mxGeometry x="65.81" y="15" width="424.19" height="90" as="geometry" />
        </mxCell>
        <mxCell id="qBdc02s06b4DXhgkFweo-48" value="&lt;div&gt;&lt;b&gt;Size&lt;/b&gt;&lt;/div&gt;" style="rounded=0;whiteSpace=wrap;html=1;align=center;verticalAlign=top;container=1;horizontal=0;fillColor=#dae8fc;strokeColor=#6c8ebf;" vertex="1" collapsed="1" parent="qBdc02s06b4DXhgkFweo-43">
          <mxGeometry y="90" width="510" height="30" as="geometry">
            <mxRectangle y="230" width="510" height="80" as="alternateBounds" />
          </mxGeometry>
        </mxCell>
        <mxCell id="qBdc02s06b4DXhgkFweo-49" value="&lt;strong&gt;&lt;/strong&gt;616 x 353 px" style="text;html=1;strokeColor=none;fillColor=none;align=left;verticalAlign=middle;whiteSpace=wrap;rounded=0;" vertex="1" parent="qBdc02s06b4DXhgkFweo-48">
          <mxGeometry x="65.81" y="10" width="424.19" height="60" as="geometry" />
        </mxCell>
        <mxCell id="qBdc02s06b4DXhgkFweo-50" value="Vertical Capsule - 374 x 448 px" style="swimlane;fontStyle=5;childLayout=stackLayout;horizontal=1;startSize=30;horizontalStack=0;resizeParent=1;resizeParentMax=0;resizeLast=0;collapsible=1;marginBottom=0;whiteSpace=wrap;html=1;fillColor=#1ba1e2;strokeColor=#006EAF;fontColor=#ffffff;" vertex="1" parent="qBdc02s06b4DXhgkFweo-2">
          <mxGeometry y="120" width="510" height="310" as="geometry">
            <mxRectangle y="120" width="510" height="30" as="alternateBounds" />
          </mxGeometry>
        </mxCell>
        <mxCell id="qBdc02s06b4DXhgkFweo-51" value="&lt;div&gt;&lt;b&gt;Usage&lt;/b&gt;&lt;/div&gt;" style="rounded=0;whiteSpace=wrap;html=1;align=center;verticalAlign=top;container=1;horizontal=0;fillColor=#dae8fc;strokeColor=#6c8ebf;" vertex="1" parent="qBdc02s06b4DXhgkFweo-50">
          <mxGeometry y="30" width="510" height="80" as="geometry">
            <mxRectangle y="30" width="510" height="30" as="alternateBounds" />
          </mxGeometry>
        </mxCell>
        <mxCell id="qBdc02s06b4DXhgkFweo-52" value="These can appear at the top of the front page during seasonal sales, and on other new sale pages." style="text;html=1;strokeColor=none;fillColor=none;align=left;verticalAlign=middle;whiteSpace=wrap;rounded=0;" vertex="1" parent="qBdc02s06b4DXhgkFweo-51">
          <mxGeometry x="65.81" y="10" width="424.19" height="60" as="geometry" />
        </mxCell>
        <mxCell id="qBdc02s06b4DXhgkFweo-53" value="&lt;b&gt;Design&lt;/b&gt;" style="rounded=0;whiteSpace=wrap;html=1;align=center;verticalAlign=top;container=1;horizontal=0;fillColor=#dae8fc;strokeColor=#6c8ebf;" vertex="1" parent="qBdc02s06b4DXhgkFweo-50">
          <mxGeometry y="110" width="510" height="120" as="geometry">
            <mxRectangle y="110" width="510" height="30" as="alternateBounds" />
          </mxGeometry>
        </mxCell>
        <mxCell id="qBdc02s06b4DXhgkFweo-54" value="For best results, please use the key art and logo that is being used for&lt;br/&gt; any retail boxes or marketing. Do not include quotes or other strings &lt;br/&gt;of text beyond the title of your game. The game&#39;s logotype should be &lt;br/&gt;easily legible against the background. The art used for them should &lt;br/&gt;immediately tell the customer something important about the game. It &lt;br/&gt;should be graphically-centric and give the user some sense of the &lt;br/&gt;game-play. " style="text;html=1;strokeColor=none;fillColor=none;align=left;verticalAlign=middle;whiteSpace=wrap;rounded=0;" vertex="1" parent="qBdc02s06b4DXhgkFweo-53">
          <mxGeometry x="65.81" y="15" width="424.19" height="90" as="geometry" />
        </mxCell>
        <mxCell id="qBdc02s06b4DXhgkFweo-55" value="&lt;div&gt;&lt;b&gt;Size&lt;/b&gt;&lt;/div&gt;" style="rounded=0;whiteSpace=wrap;html=1;align=center;verticalAlign=top;container=1;horizontal=0;fillColor=#dae8fc;strokeColor=#6c8ebf;" vertex="1" parent="qBdc02s06b4DXhgkFweo-50">
          <mxGeometry y="230" width="510" height="80" as="geometry">
            <mxRectangle y="230" width="510" height="30" as="alternateBounds" />
          </mxGeometry>
        </mxCell>
        <mxCell id="qBdc02s06b4DXhgkFweo-56" value="374px x 448px" style="text;html=1;strokeColor=none;fillColor=none;align=left;verticalAlign=middle;whiteSpace=wrap;rounded=0;" vertex="1" parent="qBdc02s06b4DXhgkFweo-55">
          <mxGeometry x="65.81" y="10" width="424.19" height="60" as="geometry" />
        </mxCell>
        <mxCell id="qBdc02s06b4DXhgkFweo-57" value="Screenshots - Any Size *" style="swimlane;fontStyle=5;childLayout=stackLayout;horizontal=1;startSize=30;horizontalStack=0;resizeParent=1;resizeParentMax=0;resizeLast=0;collapsible=1;marginBottom=0;whiteSpace=wrap;html=1;fillColor=#1ba1e2;strokeColor=#006EAF;fontColor=#ffffff;" vertex="1" collapsed="1" parent="qBdc02s06b4DXhgkFweo-2">
          <mxGeometry y="430" width="510" height="30" as="geometry">
            <mxRectangle y="30" width="510" height="120" as="alternateBounds" />
          </mxGeometry>
        </mxCell>
        <mxCell id="qBdc02s06b4DXhgkFweo-58" value="&lt;div&gt;&lt;b&gt;Usage&lt;/b&gt;&lt;/div&gt;" style="rounded=0;whiteSpace=wrap;html=1;align=center;verticalAlign=top;container=1;horizontal=0;fillColor=#dae8fc;strokeColor=#6c8ebf;" vertex="1" collapsed="1" parent="qBdc02s06b4DXhgkFweo-57">
          <mxGeometry y="30" width="510" height="30" as="geometry">
            <mxRectangle y="30" width="510" height="80" as="alternateBounds" />
          </mxGeometry>
        </mxCell>
        <mxCell id="qBdc02s06b4DXhgkFweo-59" value="This appears at the top of the store page, in the &#39;Recommended For You&#39; section, in browse views on Big Picture mode, and for Daily Deals if applicable." style="text;html=1;strokeColor=none;fillColor=none;align=left;verticalAlign=middle;whiteSpace=wrap;rounded=0;" vertex="1" parent="qBdc02s06b4DXhgkFweo-58">
          <mxGeometry x="65.81" y="10" width="424.19" height="60" as="geometry" />
        </mxCell>
        <mxCell id="qBdc02s06b4DXhgkFweo-60" value="&lt;b&gt;Design&lt;/b&gt;" style="rounded=0;whiteSpace=wrap;html=1;align=center;verticalAlign=top;container=1;horizontal=0;fillColor=#dae8fc;strokeColor=#6c8ebf;" vertex="1" collapsed="1" parent="qBdc02s06b4DXhgkFweo-57">
          <mxGeometry y="60" width="510" height="30" as="geometry">
            <mxRectangle y="110" width="510" height="80" as="alternateBounds" />
          </mxGeometry>
        </mxCell>
        <mxCell id="qBdc02s06b4DXhgkFweo-61" value="This image should focus on the branding of your product. For best results, please use the same artwork that you use for any retail box or marketing and make sure the logo and game name is clearly legible." style="text;html=1;strokeColor=none;fillColor=none;align=left;verticalAlign=middle;whiteSpace=wrap;rounded=0;" vertex="1" parent="qBdc02s06b4DXhgkFweo-60">
          <mxGeometry x="65.81" y="10" width="424.19" height="60" as="geometry" />
        </mxCell>
        <mxCell id="qBdc02s06b4DXhgkFweo-62" value="&lt;div&gt;&lt;b&gt;Size&lt;/b&gt;&lt;/div&gt;" style="rounded=0;whiteSpace=wrap;html=1;align=center;verticalAlign=top;container=1;horizontal=0;fillColor=#dae8fc;strokeColor=#6c8ebf;" vertex="1" collapsed="1" parent="qBdc02s06b4DXhgkFweo-57">
          <mxGeometry y="90" width="510" height="30" as="geometry">
            <mxRectangle y="190" width="510" height="80" as="alternateBounds" />
          </mxGeometry>
        </mxCell>
        <mxCell id="qBdc02s06b4DXhgkFweo-63" value="Please provide &#39;460px x 215px&#39; . A &#39;292px x 136px&#39; image will be automatically generated from this." style="text;html=1;strokeColor=none;fillColor=none;align=left;verticalAlign=middle;whiteSpace=wrap;rounded=0;" vertex="1" parent="qBdc02s06b4DXhgkFweo-62">
          <mxGeometry x="65.81" y="10" width="424.19" height="60" as="geometry" />
        </mxCell>
        <mxCell id="qBdc02s06b4DXhgkFweo-64" value="Page Background - 1438 x 810 px - OPTIONAL" style="swimlane;fontStyle=5;childLayout=stackLayout;horizontal=1;startSize=30;horizontalStack=0;resizeParent=1;resizeParentMax=0;resizeLast=0;collapsible=1;marginBottom=0;whiteSpace=wrap;html=1;fillColor=#1ba1e2;strokeColor=#006EAF;fontColor=#ffffff;" vertex="1" collapsed="1" parent="qBdc02s06b4DXhgkFweo-2">
          <mxGeometry y="460" width="510" height="30" as="geometry">
            <mxRectangle y="30" width="510" height="120" as="alternateBounds" />
          </mxGeometry>
        </mxCell>
        <mxCell id="qBdc02s06b4DXhgkFweo-65" value="&lt;div&gt;&lt;b&gt;Usage&lt;/b&gt;&lt;/div&gt;" style="rounded=0;whiteSpace=wrap;html=1;align=center;verticalAlign=top;container=1;horizontal=0;fillColor=#dae8fc;strokeColor=#6c8ebf;" vertex="1" collapsed="1" parent="qBdc02s06b4DXhgkFweo-64">
          <mxGeometry y="30" width="510" height="30" as="geometry">
            <mxRectangle y="30" width="510" height="80" as="alternateBounds" />
          </mxGeometry>
        </mxCell>
        <mxCell id="qBdc02s06b4DXhgkFweo-66" value="This appears at the top of the store page, in the &#39;Recommended For You&#39; section, in browse views on Big Picture mode, and for Daily Deals if applicable." style="text;html=1;strokeColor=none;fillColor=none;align=left;verticalAlign=middle;whiteSpace=wrap;rounded=0;" vertex="1" parent="qBdc02s06b4DXhgkFweo-65">
          <mxGeometry x="65.81" y="10" width="424.19" height="60" as="geometry" />
        </mxCell>
        <mxCell id="qBdc02s06b4DXhgkFweo-67" value="&lt;b&gt;Design&lt;/b&gt;" style="rounded=0;whiteSpace=wrap;html=1;align=center;verticalAlign=top;container=1;horizontal=0;fillColor=#dae8fc;strokeColor=#6c8ebf;" vertex="1" collapsed="1" parent="qBdc02s06b4DXhgkFweo-64">
          <mxGeometry y="60" width="510" height="30" as="geometry">
            <mxRectangle y="110" width="510" height="80" as="alternateBounds" />
          </mxGeometry>
        </mxCell>
        <mxCell id="qBdc02s06b4DXhgkFweo-68" value="This image should focus on the branding of your product. For best results, please use the same artwork that you use for any retail box or marketing and make sure the logo and game name is clearly legible." style="text;html=1;strokeColor=none;fillColor=none;align=left;verticalAlign=middle;whiteSpace=wrap;rounded=0;" vertex="1" parent="qBdc02s06b4DXhgkFweo-67">
          <mxGeometry x="65.81" y="10" width="424.19" height="60" as="geometry" />
        </mxCell>
        <mxCell id="qBdc02s06b4DXhgkFweo-69" value="&lt;div&gt;&lt;b&gt;Size&lt;/b&gt;&lt;/div&gt;" style="rounded=0;whiteSpace=wrap;html=1;align=center;verticalAlign=top;container=1;horizontal=0;fillColor=#dae8fc;strokeColor=#6c8ebf;" vertex="1" collapsed="1" parent="qBdc02s06b4DXhgkFweo-64">
          <mxGeometry y="90" width="510" height="30" as="geometry">
            <mxRectangle y="190" width="510" height="80" as="alternateBounds" />
          </mxGeometry>
        </mxCell>
        <mxCell id="qBdc02s06b4DXhgkFweo-70" value="Please provide &#39;460px x 215px&#39; . A &#39;292px x 136px&#39; image will be automatically generated from this." style="text;html=1;strokeColor=none;fillColor=none;align=left;verticalAlign=middle;whiteSpace=wrap;rounded=0;" vertex="1" parent="qBdc02s06b4DXhgkFweo-69">
          <mxGeometry x="65.81" y="10" width="424.19" height="60" as="geometry" />
        </mxCell>
        <mxCell id="qBdc02s06b4DXhgkFweo-71" value="Bundle Images - OPTIONAL" style="swimlane;fontStyle=5;childLayout=stackLayout;horizontal=1;startSize=30;horizontalStack=0;resizeParent=1;resizeParentMax=0;resizeLast=0;collapsible=1;marginBottom=0;whiteSpace=wrap;html=1;fillColor=#1ba1e2;strokeColor=#006EAF;fontColor=#ffffff;" vertex="1" collapsed="1" parent="qBdc02s06b4DXhgkFweo-2">
          <mxGeometry y="490" width="510" height="30" as="geometry">
            <mxRectangle y="30" width="510" height="120" as="alternateBounds" />
          </mxGeometry>
        </mxCell>
        <mxCell id="qBdc02s06b4DXhgkFweo-72" value="&lt;div&gt;&lt;b&gt;Usage&lt;/b&gt;&lt;/div&gt;" style="rounded=0;whiteSpace=wrap;html=1;align=center;verticalAlign=top;container=1;horizontal=0;fillColor=#dae8fc;strokeColor=#6c8ebf;" vertex="1" collapsed="1" parent="qBdc02s06b4DXhgkFweo-71">
          <mxGeometry y="30" width="510" height="30" as="geometry">
            <mxRectangle y="30" width="510" height="80" as="alternateBounds" />
          </mxGeometry>
        </mxCell>
        <mxCell id="qBdc02s06b4DXhgkFweo-73" value="This appears at the top of the store page, in the &#39;Recommended For You&#39; section, in browse views on Big Picture mode, and for Daily Deals if applicable." style="text;html=1;strokeColor=none;fillColor=none;align=left;verticalAlign=middle;whiteSpace=wrap;rounded=0;" vertex="1" parent="qBdc02s06b4DXhgkFweo-72">
          <mxGeometry x="65.81" y="10" width="424.19" height="60" as="geometry" />
        </mxCell>
        <mxCell id="qBdc02s06b4DXhgkFweo-74" value="&lt;b&gt;Design&lt;/b&gt;" style="rounded=0;whiteSpace=wrap;html=1;align=center;verticalAlign=top;container=1;horizontal=0;fillColor=#dae8fc;strokeColor=#6c8ebf;" vertex="1" collapsed="1" parent="qBdc02s06b4DXhgkFweo-71">
          <mxGeometry y="60" width="510" height="30" as="geometry">
            <mxRectangle y="110" width="510" height="80" as="alternateBounds" />
          </mxGeometry>
        </mxCell>
        <mxCell id="qBdc02s06b4DXhgkFweo-75" value="This image should focus on the branding of your product. For best results, please use the same artwork that you use for any retail box or marketing and make sure the logo and game name is clearly legible." style="text;html=1;strokeColor=none;fillColor=none;align=left;verticalAlign=middle;whiteSpace=wrap;rounded=0;" vertex="1" parent="qBdc02s06b4DXhgkFweo-74">
          <mxGeometry x="65.81" y="10" width="424.19" height="60" as="geometry" />
        </mxCell>
        <mxCell id="qBdc02s06b4DXhgkFweo-76" value="&lt;div&gt;&lt;b&gt;Size&lt;/b&gt;&lt;/div&gt;" style="rounded=0;whiteSpace=wrap;html=1;align=center;verticalAlign=top;container=1;horizontal=0;fillColor=#dae8fc;strokeColor=#6c8ebf;" vertex="1" collapsed="1" parent="qBdc02s06b4DXhgkFweo-71">
          <mxGeometry y="90" width="510" height="30" as="geometry">
            <mxRectangle y="190" width="510" height="80" as="alternateBounds" />
          </mxGeometry>
        </mxCell>
        <mxCell id="qBdc02s06b4DXhgkFweo-77" value="Please provide &#39;460px x 215px&#39; . A &#39;292px x 136px&#39; image will be automatically generated from this." style="text;html=1;strokeColor=none;fillColor=none;align=left;verticalAlign=middle;whiteSpace=wrap;rounded=0;" vertex="1" parent="qBdc02s06b4DXhgkFweo-76">
          <mxGeometry x="65.81" y="10" width="424.19" height="60" as="geometry" />
        </mxCell>
        <mxCell id="qBdc02s06b4DXhgkFweo-6" value="Community Assets" style="swimlane;fontStyle=0;childLayout=stackLayout;horizontal=1;startSize=30;horizontalStack=0;resizeParent=1;resizeParentMax=0;resizeLast=0;collapsible=1;marginBottom=0;whiteSpace=wrap;html=1;" vertex="1" parent="1">
          <mxGeometry x="830" y="170" width="197.5" height="120" as="geometry" />
        </mxCell>
        <mxCell id="qBdc02s06b4DXhgkFweo-7" value="Item 1" style="text;strokeColor=none;fillColor=none;align=left;verticalAlign=middle;spacingLeft=4;spacingRight=4;overflow=hidden;points=[[0,0.5],[1,0.5]];portConstraint=eastwest;rotatable=0;whiteSpace=wrap;html=1;" vertex="1" parent="qBdc02s06b4DXhgkFweo-6">
          <mxGeometry y="30" width="197.5" height="30" as="geometry" />
        </mxCell>
        <mxCell id="qBdc02s06b4DXhgkFweo-8" value="Item 2" style="text;strokeColor=none;fillColor=none;align=left;verticalAlign=middle;spacingLeft=4;spacingRight=4;overflow=hidden;points=[[0,0.5],[1,0.5]];portConstraint=eastwest;rotatable=0;whiteSpace=wrap;html=1;" vertex="1" parent="qBdc02s06b4DXhgkFweo-6">
          <mxGeometry y="60" width="197.5" height="30" as="geometry" />
        </mxCell>
        <mxCell id="qBdc02s06b4DXhgkFweo-9" value="Item 3" style="text;strokeColor=none;fillColor=none;align=left;verticalAlign=middle;spacingLeft=4;spacingRight=4;overflow=hidden;points=[[0,0.5],[1,0.5]];portConstraint=eastwest;rotatable=0;whiteSpace=wrap;html=1;" vertex="1" parent="qBdc02s06b4DXhgkFweo-6">
          <mxGeometry y="90" width="197.5" height="30" as="geometry" />
        </mxCell>
        <mxCell id="qBdc02s06b4DXhgkFweo-11" value="Library Assets" style="swimlane;fontStyle=0;childLayout=stackLayout;horizontal=1;startSize=30;horizontalStack=0;resizeParent=1;resizeParentMax=0;resizeLast=0;collapsible=1;marginBottom=0;whiteSpace=wrap;html=1;" vertex="1" parent="1">
          <mxGeometry x="830" y="570" width="197.5" height="120" as="geometry" />
        </mxCell>
        <mxCell id="qBdc02s06b4DXhgkFweo-12" value="Item 1" style="text;strokeColor=none;fillColor=none;align=left;verticalAlign=middle;spacingLeft=4;spacingRight=4;overflow=hidden;points=[[0,0.5],[1,0.5]];portConstraint=eastwest;rotatable=0;whiteSpace=wrap;html=1;" vertex="1" parent="qBdc02s06b4DXhgkFweo-11">
          <mxGeometry y="30" width="197.5" height="30" as="geometry" />
        </mxCell>
        <mxCell id="qBdc02s06b4DXhgkFweo-13" value="Item 2" style="text;strokeColor=none;fillColor=none;align=left;verticalAlign=middle;spacingLeft=4;spacingRight=4;overflow=hidden;points=[[0,0.5],[1,0.5]];portConstraint=eastwest;rotatable=0;whiteSpace=wrap;html=1;" vertex="1" parent="qBdc02s06b4DXhgkFweo-11">
          <mxGeometry y="60" width="197.5" height="30" as="geometry" />
        </mxCell>
        <mxCell id="qBdc02s06b4DXhgkFweo-14" value="Item 3" style="text;strokeColor=none;fillColor=none;align=left;verticalAlign=middle;spacingLeft=4;spacingRight=4;overflow=hidden;points=[[0,0.5],[1,0.5]];portConstraint=eastwest;rotatable=0;whiteSpace=wrap;html=1;" vertex="1" parent="qBdc02s06b4DXhgkFweo-11">
          <mxGeometry y="90" width="197.5" height="30" as="geometry" />
        </mxCell>
        <mxCell id="qBdc02s06b4DXhgkFweo-15" value="Event Assets" style="swimlane;fontStyle=0;childLayout=stackLayout;horizontal=1;startSize=30;horizontalStack=0;resizeParent=1;resizeParentMax=0;resizeLast=0;collapsible=1;marginBottom=0;whiteSpace=wrap;html=1;" vertex="1" parent="1">
          <mxGeometry x="730" y="440" width="197.5" height="120" as="geometry" />
        </mxCell>
        <mxCell id="qBdc02s06b4DXhgkFweo-16" value="Item 1" style="text;strokeColor=none;fillColor=none;align=left;verticalAlign=middle;spacingLeft=4;spacingRight=4;overflow=hidden;points=[[0,0.5],[1,0.5]];portConstraint=eastwest;rotatable=0;whiteSpace=wrap;html=1;" vertex="1" parent="qBdc02s06b4DXhgkFweo-15">
          <mxGeometry y="30" width="197.5" height="30" as="geometry" />
        </mxCell>
        <mxCell id="qBdc02s06b4DXhgkFweo-17" value="Item 2" style="text;strokeColor=none;fillColor=none;align=left;verticalAlign=middle;spacingLeft=4;spacingRight=4;overflow=hidden;points=[[0,0.5],[1,0.5]];portConstraint=eastwest;rotatable=0;whiteSpace=wrap;html=1;" vertex="1" parent="qBdc02s06b4DXhgkFweo-15">
          <mxGeometry y="60" width="197.5" height="30" as="geometry" />
        </mxCell>
        <mxCell id="qBdc02s06b4DXhgkFweo-18" value="Item 3" style="text;strokeColor=none;fillColor=none;align=left;verticalAlign=middle;spacingLeft=4;spacingRight=4;overflow=hidden;points=[[0,0.5],[1,0.5]];portConstraint=eastwest;rotatable=0;whiteSpace=wrap;html=1;" vertex="1" parent="qBdc02s06b4DXhgkFweo-15">
          <mxGeometry y="90" width="197.5" height="30" as="geometry" />
        </mxCell>
      </root>
    </mxGraphModel>
  </diagram>
</mxfile>
